<?xml version="1.0" encoding="UTF-8" standalone="no"?>
<!-- Created with Inkscape (http://www.inkscape.org/) -->

<svg
   xmlns:dc="http://purl.org/dc/elements/1.1/"
   xmlns:cc="http://creativecommons.org/ns#"
   xmlns:rdf="http://www.w3.org/1999/02/22-rdf-syntax-ns#"
   xmlns:svg="http://www.w3.org/2000/svg"
   xmlns="http://www.w3.org/2000/svg"
   xmlns:sodipodi="http://sodipodi.sourceforge.net/DTD/sodipodi-0.dtd"
   xmlns:inkscape="http://www.inkscape.org/namespaces/inkscape"
   width="793.70081"
   height="1122.5197"
   viewBox="0 0 210 297"
   version="1.1"
   id="svg6847"
   inkscape:version="0.92.4 (5da689c313, 2019-01-14)"
   sodipodi:docname="drawing-1.svg">
  <defs
     id="defs6841" />
  <sodipodi:namedview
     id="base"
     pagecolor="#ffffff"
     bordercolor="#666666"
     borderopacity="1.0"
     inkscape:pageopacity="0.0"
     inkscape:pageshadow="2"
     inkscape:zoom="2.8"
     inkscape:cx="654.4419"
     inkscape:cy="1303.5893"
     inkscape:document-units="px"
     inkscape:current-layer="layer1"
     showgrid="false"
     showborder="false"
     units="px"
     inkscape:window-width="1920"
     inkscape:window-height="1017"
     inkscape:window-x="-8"
     inkscape:window-y="-8"
     inkscape:window-maximized="1" />
  <metadata
     id="metadata6844">
    <rdf:RDF>
      <cc:Work
         rdf:about="">
        <dc:format>image/svg+xml</dc:format>
        <dc:type
           rdf:resource="http://purl.org/dc/dcmitype/StillImage" />
        <dc:title></dc:title>
      </cc:Work>
    </rdf:RDF>
  </metadata>
  <g
     inkscape:label="Layer 1"
     inkscape:groupmode="layer"
     id="layer1">
    <flowRoot
       xml:space="preserve"
       id="flowRoot7392"
       style="fill:black;fill-opacity:1;stroke:none;font-family:'Freestyle Script';font-style:normal;font-weight:normal;font-size:74.66666667px;line-height:1.25;letter-spacing:0px;word-spacing:0px;-inkscape-font-specification:'Freestyle Script, Normal';font-stretch:normal;font-variant:normal;text-anchor:start;text-align:start;writing-mode:lr;font-variant-ligatures:normal;font-variant-caps:normal;font-variant-numeric:normal;font-feature-settings:normal;stroke-width:1.0015748;stroke-miterlimit:4;stroke-dasharray:none"><flowRegion
         id="flowRegion7394"
         style="-inkscape-font-specification:'Freestyle Script, Normal';font-family:'Freestyle Script';font-weight:normal;font-style:normal;font-stretch:normal;font-variant:normal;font-size:74.66666667px;text-anchor:start;text-align:start;writing-mode:lr;font-variant-ligatures:normal;font-variant-caps:normal;font-variant-numeric:normal;font-feature-settings:normal;stroke-width:1.0015748;stroke-miterlimit:4;stroke-dasharray:none"><rect
           id="rect7396"
           width="1151.5739"
           height="430.32498"
           x="10.101525"
           y="-190.67865"
           style="-inkscape-font-specification:'Freestyle Script, Normal';font-family:'Freestyle Script';font-weight:normal;font-style:normal;font-stretch:normal;font-variant:normal;font-size:74.66666667px;text-anchor:start;text-align:start;writing-mode:lr;font-variant-ligatures:normal;font-variant-caps:normal;font-variant-numeric:normal;font-feature-settings:normal;stroke-width:1.0015748;stroke-miterlimit:4;stroke-dasharray:none" /></flowRegion><flowPara
         id="flowPara7398"></flowPara></flowRoot>    <text
       xml:space="preserve"
       style="font-style:normal;font-variant:normal;font-weight:normal;font-stretch:normal;font-size:19.7555542px;line-height:1.25;font-family:sans-serif;-inkscape-font-specification:'sans-serif, Normal';font-variant-ligatures:normal;font-variant-caps:normal;font-variant-numeric:normal;font-feature-settings:normal;text-align:start;letter-spacing:0px;word-spacing:0px;writing-mode:lr-tb;text-anchor:start;fill:#000000;fill-opacity:1;stroke:none;stroke-width:0.265;stroke-miterlimit:4;stroke-dasharray:none"
       x="47.573975"
       y="-37.086918"
       id="text7402"><tspan
         sodipodi:role="line"
         id="tspan7400"
         x="47.573975"
         y="-19.607883"
         style="stroke-width:0.265;stroke-miterlimit:4;stroke-dasharray:none"></tspan></text>
    <text
       xml:space="preserve"
       style="font-style:normal;font-variant:normal;font-weight:normal;font-stretch:normal;font-size:19.7555542px;line-height:1.25;font-family:sans-serif;-inkscape-font-specification:'sans-serif, Normal';font-variant-ligatures:normal;font-variant-caps:normal;font-variant-numeric:normal;font-feature-settings:normal;text-align:start;letter-spacing:0px;word-spacing:0px;writing-mode:lr-tb;text-anchor:start;fill:#000000;fill-opacity:1;stroke:none;stroke-width:0.265;stroke-miterlimit:4;stroke-dasharray:none"
       x="11.22532"
       y="-45.639542"
       id="text7410"><tspan
         sodipodi:role="line"
         id="tspan7408"
         x="11.22532"
         y="-45.639542"
         style="stroke-width:0.265;-inkscape-font-specification:'Freestyle Script, Normal';font-family:'Freestyle Script';font-weight:normal;font-style:normal;font-stretch:normal;font-variant:normal;font-size:50.80000013px;text-anchor:start;text-align:start;writing-mode:lr;font-variant-ligatures:normal;font-variant-caps:normal;font-variant-numeric:normal;font-feature-settings:normal;stroke-miterlimit:4;stroke-dasharray:none">NCI Codeschool</tspan></text>
    <path
       style="fill:none;stroke:#e50000;stroke-width:2.16500001;stroke-linecap:round;stroke-linejoin:round;stroke-opacity:1;stroke-miterlimit:4;stroke-dasharray:none"
       d="m 10.394345,-46.391377 5.102679,-10.772322 4.535714,-8.315476 4.535714,-7.370535 4.157738,-5.291667 -1.511905,6.236608 -1.88988,8.882441 -0.944941,6.992559 v 8.693451 l 1.889881,-0.377976 2.456845,-8.126489 3.779761,-8.504462 4.157739,-7.181548 4.535715,-7.9375"
       id="path7412"
       inkscape:connector-curvature="0" />
    <path
       style="fill:none;stroke:#dd0000;stroke-width:2.06500006;stroke-linecap:round;stroke-linejoin:round;stroke-miterlimit:4;stroke-dasharray:none;stroke-opacity:1"
       d="m 53.483631,-65.668162 5.858629,-6.992561 0.566965,-3.779761 -1.889882,-2.267858 -4.724701,1.700893 -3.96875,3.779763 -3.212798,3.779761 -3.590772,4.724702 -2.645833,5.669645 -1.889882,4.535712 c -0.296983,1.700893 -0.845346,3.401787 -0.188989,5.10268 l 2.645833,3.401785 3.96875,-0.188989 2.645833,-1.511904 2.834823,-2.456846 2.267857,-2.645834 2.078869,-2.645833 0.377975,-1.511903"
       id="path7414"
       inkscape:connector-curvature="0"
       sodipodi:nodetypes="cccccccccccccccccc" />
    <path
       style="fill:none;stroke:#da0000;stroke-width:1.765;stroke-linecap:round;stroke-linejoin:round;stroke-opacity:1;stroke-miterlimit:4;stroke-dasharray:none"
       d="m 75.028273,-78.141377 -3.212798,5.291667 -4.913691,6.80357 -3.212796,5.858631 -2.267857,5.102681 -1.511906,3.968749 -0.944941,3.02381 v 0"
       id="path7416"
       inkscape:connector-curvature="0" />
    <path
       style="fill:none;stroke:#de0000;stroke-width:2.36500001;stroke-linecap:round;stroke-linejoin:round;stroke-miterlimit:4;stroke-dasharray:none;stroke-opacity:1"
       d="m 98.651784,-65.668162 5.102676,-4.535715 1.51191,-4.91369 -0.37798,-2.078869 -1.13393,-1.13393 -3.21279,0.188989 -2.267862,1.700893 -4.157737,3.779761 -3.96875,5.669645 -2.456846,3.023809 -2.267858,4.346726 -1.511903,4.157736 -0.944941,4.535715 1.322917,3.779763 3.401785,1.133928 3.401785,-0.566965 2.645833,-2.078868 2.078871,-2.267858 2.267857,-2.645833 2.078869,-3.590774 v 0.188989"
       id="path7418"
       inkscape:connector-curvature="0"
       sodipodi:nodetypes="ccccccccccccccccccccc" />
    <path
       style="fill:none;stroke:#e10000;stroke-width:1.965;stroke-linecap:round;stroke-linejoin:round;stroke-opacity:1;stroke-miterlimit:4;stroke-dasharray:none"
       d="m 112.44792,-60.376495 -1.88989,-2.267858 -4.15773,2.83482 -2.64584,5.10268 -1.13393,3.023809 0.75596,3.02381 2.45684,-0.18899 2.45685,-1.889879 2.07887,-4.535715 1.5119,-3.77976 v 0"
       id="path7420"
       inkscape:connector-curvature="0" />
    <path
       style="fill:none;stroke:#d60000;stroke-width:1.66499996;stroke-linecap:round;stroke-linejoin:round;stroke-miterlimit:4;stroke-dasharray:none;stroke-opacity:1"
       d="m 131.91369,-75.306557 -3.77976,6.992562 -2.83482,5.669642 -1.88989,4.157737 -1.70089,4.157739 -0.18899,3.779761 1.32292,2.645833 -1.88988,-5.858629 -1.88988,2.456844 -2.07887,2.834823 v 0 c -2.96502,0.912189 -2.11691,-2.751372 -2.83482,-4.535715 l 0.94494,-2.834823 1.88988,-3.023809 2.64583,-2.456844 h 2.45685 l 1.70089,0.188987 -0.56696,0.188989"
       id="path7422"
       inkscape:connector-curvature="0"
       sodipodi:nodetypes="cccccccccccccccccc" />
    <path
       style="fill:none;stroke:#de0000;stroke-width:1.86500001;stroke-linecap:round;stroke-linejoin:round;stroke-opacity:1;stroke-miterlimit:4;stroke-dasharray:none"
       d="m 129.64583,-53.761912 5.10268,-2.456847 1.32292,-3.401784 v -2.078869 l -2.07887,0.377976 -3.02381,2.456844 -2.26786,3.401785 -0.94494,3.023812 0.56697,3.212795 3.40178,0.566966 2.64583,-1.133928 2.64584,-2.267857 2.45684,-2.456847 h 0.18899"
       id="path7426"
       inkscape:connector-curvature="0" />
    <path
       style="fill:none;stroke:#e00000;stroke-width:1.96500003;stroke-linecap:round;stroke-linejoin:round;stroke-miterlimit:4;stroke-dasharray:none;stroke-opacity:1"
       d="m 149.11161,-57.352686 4.53571,-1.889882 v -3.023809 l -2.45685,-0.944941 -3.21279,1.133928 -2.26786,2.267857 -0.75595,2.645834 2.07887,3.779763 0.75595,2.267857 -0.37798,2.267855 -2.45684,0.944941 -2.07887,-0.188986 c 0.15682,-0.676155 -1.42583,-0.720166 -1.13393,-1.700893 -0.75594,-0.31498 -0.75596,-0.629961 0,-0.944941 -0.4872,-0.846238 -1.29238,-1.601625 -0.0945,-2.929315"
       id="path7428"
       inkscape:connector-curvature="0"
       sodipodi:nodetypes="ccccccccccccccc" />
    <path
       style="fill:none;stroke:#db0000;stroke-width:1.76499999;stroke-linecap:round;stroke-linejoin:round;stroke-miterlimit:4;stroke-dasharray:none;stroke-opacity:1"
       d="m 161.77381,-56.97471 2.26785,-3.023809 -0.75595,-1.511906 c -0.24899,-1.456893 -1.51275,-0.207719 -2.45684,0.188989 l -1.88988,2.078868 -2.83483,3.590774 -1.88988,3.96875 c 0.009,0.846195 0.01,1.686317 0.75596,3.02381 1.47379,0.635783 2.41505,0.472781 3.40178,0.377975 l 2.26786,-1.511903 2.45684,-2.267857 1.7009,-2.645834 v 0"
       id="path7430"
       inkscape:connector-curvature="0"
       sodipodi:nodetypes="ccccccccccccc" />
    <path
       style="fill:none;stroke:#de0000;stroke-width:1.66499996;stroke-linecap:round;stroke-linejoin:round;stroke-miterlimit:4;stroke-dasharray:none;stroke-opacity:1"
       d="m 182.18452,-76.062508 -5.29166,9.260416 -2.45685,5.10268 -3.02381,6.80357 -2.83482,6.992559 4.53571,-8.882441 4.72471,-3.023809 2.45684,-1.322916 -2.26786,3.96875 -2.83482,5.10268 c -0.28891,0.963422 0.37569,2.533158 0.94494,2.834819 2.35261,-0.492141 2.56307,-0.504951 2.45685,-0.755951 l 1.88988,-1.700893 1.70089,-2.645833 0.56697,-1.13393 v 0.188989"
       id="path7432"
       inkscape:connector-curvature="0"
       sodipodi:nodetypes="cccccccccccccccc" />
    <path
       style="fill:none;stroke:#ce0000;stroke-width:1.86500001;stroke-linecap:round;stroke-linejoin:round;stroke-miterlimit:4;stroke-dasharray:none;stroke-opacity:1"
       d="m 194.09077,-61.699412 c -0.3776,-1.197676 -1.45287,-1.000007 -2.83482,-0.188989 l -3.02381,2.267858 c -1.83254,2.672614 -3.4414,5.531635 -3.77976,9.449403 -0.0536,0.845749 0.0743,1.60075 1.5119,1.700895 1.04286,-0.195837 2.05879,-0.337811 3.59078,-1.511906 1.00794,-1.506589 2.01587,-2.874258 3.02381,-5.102677 l 1.5119,-5.102681"
       id="path7434"
       inkscape:connector-curvature="0"
       sodipodi:nodetypes="cccccccc" />
    <path
       style="fill:none;stroke:#d00000;stroke-width:1.56500006;stroke-linecap:round;stroke-linejoin:round;stroke-miterlimit:4;stroke-dasharray:none;stroke-opacity:1"
       d="m 205.99702,-61.132449 c -0.67086,-0.920614 -2.81485,-2.003564 -5.48065,0.566965 l -2.26786,4.157739 -1.88988,4.157736 c -0.76258,2.085498 0.17216,2.473669 0.56696,3.401785 0.61961,0.674394 2.45767,1.043629 3.77976,-0.377976 l 3.02381,-4.535712 1.7009,-4.913691 0.56696,-2.456846"
       id="path7436"
       inkscape:connector-curvature="0"
       sodipodi:nodetypes="ccccccccc" />
    <path
       style="fill:none;stroke:#da0000;stroke-width:1.36500001;stroke-linecap:round;stroke-linejoin:round;stroke-miterlimit:4;stroke-dasharray:none;stroke-opacity:1"
       d="m 212.42262,-58.486616 4.34672,-3.401785 3.40179,-4.346726 3.59077,-5.669642 2.07887,-4.535715 c 0.4835,-0.890765 -0.19154,-0.854707 -0.94494,-0.755952 1e-5,-0.881957 -0.62997,-0.881932 -1.88988,0 l -3.40179,3.590774 -3.40178,5.858629 -3.77976,5.858632 -3.2128,8.126489 -0.75595,3.590772 c -0.0518,0.39505 -0.0491,0.811914 1.13393,1.700895 l 2.83482,-1.511906 1.5119,-2.267858 1.70089,-2.645833 v 0"
       id="path7438"
       inkscape:connector-curvature="0"
       sodipodi:nodetypes="ccccccccccccccccc" />
  </g>
</svg>
